<?xml version="1.0" encoding="UTF-8" standalone="no"?>
<svg
   xmlns:dc="http://purl.org/dc/elements/1.1/"
   xmlns:cc="http://creativecommons.org/ns#"
   xmlns:rdf="http://www.w3.org/1999/02/22-rdf-syntax-ns#"
   xmlns:svg="http://www.w3.org/2000/svg"
   xmlns="http://www.w3.org/2000/svg"
   xmlns:sodipodi="http://sodipodi.sourceforge.net/DTD/sodipodi-0.dtd"
   xmlns:inkscape="http://www.inkscape.org/namespaces/inkscape"
   inkscape:label="Layer_2"
   inkscape:version="1.0beta2 (2b71d25, 2019-12-03)"
   height="190.99825"
   width="1048.5417"
   sodipodi:docname="logo.svg"
   id="svg39"
   version="1.1"
   viewBox="0 0 1048.5418 190.99824">
  <metadata
     id="metadata869">
    <rdf:RDF>
      <cc:Work
         rdf:about="">
        <dc:format>image/svg+xml</dc:format>
        <dc:type
           rdf:resource="http://purl.org/dc/dcmitype/StillImage" />
        <dc:title></dc:title>
      </cc:Work>
    </rdf:RDF>
  </metadata>
  <sodipodi:namedview
     lock-margins="true"
     fit-margin-bottom="20"
     fit-margin-right="20"
     fit-margin-top="20"
     fit-margin-left="20"
     inkscape:document-rotation="0"
     inkscape:current-layer="svg39"
     inkscape:window-maximized="0"
     inkscape:window-y="25"
     inkscape:window-x="0"
     inkscape:window-height="974"
     inkscape:window-width="1920"
     inkscape:cy="177.91993"
     inkscape:cx="426.51311"
     inkscape:zoom="1"
     showgrid="false"
     inkscape:pagecheckerboard="0"
     inkscape:pageopacity="0.0"
     inkscape:pageshadow="2"
     borderopacity="1.0"
     bordercolor="#666666"
     pagecolor="#ffffff"
     id="namedview41" />
  <defs
     id="defs11">
    <rect
       id="rect2061"
       height="124"
       width="570"
       y="274"
       x="548.82837" />
    <style
       id="style9">.cls-1{fill:none;}.cls-2{fill:#242a36;}.cls-3{fill:#1976d2;}</style>
  </defs>
  <g
     inkscape:groupmode="layer"
     inkscape:label="Layer_2"
     transform="translate(-77.68617,-66.001787)"
     data-name="Layer 2"
     id="Layer_2">
    <text
       style="font-style:normal;font-weight:normal;font-size:40px;line-height:1.25;font-family:sans-serif;white-space:pre;shape-inside:url(#rect2061);fill:#000000;fill-opacity:1;stroke:none;"
       id="text2059"
       xml:space="preserve" />
    <text
       id="text2067"
       y="202.18407"
       x="233.74217"
       style="font-style:normal;font-variant:normal;font-weight:500;font-stretch:normal;font-size:120.133px;line-height:0.85;font-family:Avenir;-inkscape-font-specification:'Avenir Medium';fill:#000000;fill-opacity:1;stroke:none;stroke-width:3.17828"
       xml:space="preserve"><tspan
         id="tspan2069"
         style="font-style:normal;font-variant:normal;font-weight:500;font-stretch:normal;font-family:Avenir;-inkscape-font-specification:'Avenir Medium';stroke-width:3.17828"
         y="202.18407"
         x="233.74217"
         sodipodi:role="line">Swift Conductor</tspan></text>
  </g>
  <g
     inkscape:label="Layer_1"
     transform="matrix(0.29491845,0,0,0.29491845,-10.964099,20)"
     id="g1442">
    <path
       style="fill:#dd4a5f"
       d="m 365.714,201.143 c -30.299,0 -54.857,24.558 -54.857,54.857 0,30.299 24.558,54.857 54.857,54.857 30.299,0 54.857,-24.558 54.857,-54.857 0,-30.299 -24.557,-54.857 -54.857,-54.857"
       id="path1432"
       inkscape:connector-curvature="0" />
    <path
       style="fill:#dd4a5f"
       d="m 256,210.286 c 30.299,0 54.857,-24.558 54.857,-54.857 0,-30.299 -24.558,-54.858 -54.857,-54.858 -30.299,0 -54.857,24.558 -54.857,54.857 0,30.299 24.558,54.858 54.857,54.858"
       id="path1434"
       inkscape:connector-curvature="0" />
    <path
       style="fill:#dd4a5f"
       d="m 146.286,109.714 c 30.299,0 54.857,-24.558 54.857,-54.857 C 201.143,24.558 176.585,0 146.286,0 115.987,0 91.429,24.558 91.429,54.857 c 0,30.299 24.557,54.857 54.857,54.857"
       id="path1436"
       inkscape:connector-curvature="0" />
    <path
       style="fill:#dd4a5f"
       d="m 256,301.714 c -30.299,0 -54.857,24.558 -54.857,54.857 0,30.299 24.558,54.857 54.857,54.857 30.299,0 54.857,-24.558 54.857,-54.857 0,-30.299 -24.558,-54.857 -54.857,-54.857"
       id="path1438"
       inkscape:connector-curvature="0" />
    <path
       style="fill:#dd4a5f"
       d="m 146.286,402.286 c -30.299,0 -54.857,24.558 -54.857,54.857 0,30.299 24.558,54.857 54.857,54.857 30.299,0 54.857,-24.558 54.857,-54.857 0,-30.3 -24.558,-54.857 -54.857,-54.857"
       id="path1440"
       inkscape:connector-curvature="0" />
  </g>
</svg>
